<?xml version="1.0" standalone="no"?>
<!DOCTYPE svg PUBLIC "-//W3C//DTD SVG 20010904//EN"
 "http://www.w3.org/TR/2001/REC-SVG-20010904/DTD/svg10.dtd">
<svg version="1.0" xmlns="http://www.w3.org/2000/svg"
 width="700.000000pt" height="700.000000pt" viewBox="0 0 700.000000 700.000000"
 preserveAspectRatio="xMidYMid meet">
<metadata>
Created by potrace 1.14, written by Peter Selinger 2001-2017
</metadata>
<g transform="translate(0.000000,700.000000) scale(0.100000,-0.100000)"
fill="#000000" stroke="none">
<path d="M833 6412 c-39 -25 -38 13 -37 -1932 0 -1460 3 -1880 12 -1897 15
-28 47 -37 137 -37 l70 -1 0 -138 c0 -84 -4 -137 -10 -138 -5 -1 -39 -1 -74
-1 -36 0 -75 -4 -88 -9 -46 -17 -48 -38 -47 -500 1 -239 2 -437 3 -440 2 -12
149 -8 153 5 2 6 3 185 3 399 l-1 387 140 0 141 0 0 -398 0 -397 78 -1 77 -2
0 399 0 399 140 0 140 0 0 -399 0 -399 78 1 77 2 3 398 2 397 358 -2 357 -3 2
-380 c0 -209 1 -388 2 -397 1 -14 12 -16 79 -15 l77 2 0 395 0 395 140 0 140
0 -1 -396 0 -396 78 -1 78 -2 1 298 c0 163 0 343 -1 399 l-1 103 361 0 360 0
0 -400 0 -401 78 3 77 3 2 385 c0 212 2 391 2 398 1 9 36 12 139 12 l138 0 -1
-383 c0 -210 1 -390 3 -399 4 -15 16 -18 73 -18 43 0 71 5 76 13 4 6 8 185 8
397 l0 385 358 3 357 2 0 -400 0 -400 80 2 80 1 0 399 0 398 140 0 140 0 0
-401 0 -400 78 3 77 3 2 380 c0 209 1 388 2 398 1 16 13 17 139 15 l137 -3 2
-380 c0 -209 2 -388 2 -398 1 -16 10 -18 78 -15 l78 3 0 435 c0 239 -3 447 -8
462 -14 43 -34 53 -116 55 -42 1 -81 2 -86 2 -7 1 -10 50 -9 134 1 72 2 134 3
137 0 3 31 5 69 6 93 1 121 9 135 43 9 21 12 352 12 1353 -1 1235 -2 1327 -18
1352 -10 14 -29 29 -43 32 -28 7 -46 -1 -154 -66 -248 -152 -566 -203 -810
-131 -181 53 -354 176 -491 347 -69 86 -89 90 -179 30 -182 -120 -399 -207
-589 -233 -101 -14 -349 -8 -440 11 -225 47 -441 151 -648 313 -90 69 -274
248 -337 325 -58 73 -87 76 -176 23 -260 -155 -535 -193 -784 -106 -202 71
-389 236 -566 501 -24 36 -48 68 -54 72 -14 10 -68 10 -83 0z m144 -346 c14
-24 115 -128 178 -182 296 -255 686 -317 1057 -168 51 20 111 47 135 61 l43
24 83 -87 c210 -223 458 -399 697 -497 96 -40 248 -82 330 -92 30 -4 64 -9 75
-11 25 -5 271 -5 305 0 14 2 42 7 63 10 20 3 54 9 74 12 120 19 323 94 463
170 l95 52 81 -82 c105 -106 197 -175 309 -231 168 -84 300 -111 500 -102 186
8 363 56 546 148 l35 17 0 -1198 c0 -829 -3 -1200 -10 -1203 -6 -2 -375 -3
-821 -3 l-810 1 -45 31 c-109 76 -310 151 -455 170 -27 3 -53 8 -57 10 -4 3
-58 5 -120 5 -228 0 -446 -61 -633 -175 l-70 -43 -1030 2 c-566 1 -1033 3
-1036 4 -8 2 -6 3371 2 3371 5 0 12 -6 16 -14z m2871 -3311 c183 -27 337 -85
445 -167 28 -21 63 -39 77 -39 14 -1 347 -2 740 -3 l715 -1 2 -137 2 -138 -27
-1 c-35 -1 -4569 -1 -4604 0 l-27 1 2 138 2 137 956 0 956 0 57 44 c111 83
298 151 461 168 33 3 61 7 63 8 5 4 138 -3 180 -10z"/>
<path d="M2110 5360 l0 -110 78 0 78 0 0 110 1 110 -79 0 -78 0 0 -110z"/>
<path d="M1233 5140 l1 -110 78 0 78 0 0 110 0 110 -79 0 -78 0 0 -110z"/>
<path d="M1670 4922 l0 -108 80 -2 80 -2 0 110 0 110 -80 0 -80 0 0 -108z"/>
<path d="M2546 4928 c1 -57 2 -107 3 -111 1 -4 35 -7 76 -6 61 1 75 5 76 18 1
9 2 58 3 108 l1 93 -80 0 -80 0 1 -102z"/>
<path d="M2114 4811 c-2 -2 -4 -52 -4 -111 l0 -106 78 0 77 1 1 108 c0 70 -3
107 -10 108 -70 3 -139 3 -142 0z"/>
<path d="M1241 4590 c-6 -4 -9 -169 -3 -205 1 -6 35 -10 77 -11 l76 0 -3 110
-3 110 -68 1 c-37 0 -71 -2 -76 -5z"/>
<path d="M4741 4590 c-4 -3 -7 -52 -7 -110 l1 -105 78 0 77 -1 0 111 0 110
-71 0 c-39 0 -74 -2 -78 -5z"/>
<path d="M1673 4364 c-2 -6 -2 -55 -1 -110 l3 -99 75 0 75 0 3 108 c1 59 -1
108 -5 108 -41 7 -146 2 -150 -7z"/>
<path d="M2549 4355 c-1 -11 -2 -59 -3 -107 -1 -99 -6 -94 94 -93 l65 0 0 98
c0 54 -2 103 -5 110 -3 8 -30 12 -77 12 -67 1 -73 -1 -74 -20z"/>
<path d="M5610 4265 l0 -111 78 1 77 0 0 110 0 109 -77 1 -78 1 0 -111z"/>
<path d="M2110 4048 c0 -96 2 -108 18 -109 68 -4 90 -4 112 2 25 5 25 7 26
111 l1 105 -79 -1 -78 0 0 -108z"/>
<path d="M1234 3832 l-1 -107 36 -5 c20 -3 55 -3 79 -1 l42 3 0 108 0 109 -78
0 -78 0 0 -107z"/>
<path d="M4519 3936 c-1 -1 -2 -49 -3 -108 l-1 -106 57 -4 c103 -6 101 -8 101
112 l0 105 -76 1 c-42 1 -78 1 -78 0z"/>
<path d="M1670 3610 l0 -110 80 0 80 0 0 109 0 109 -80 1 -80 0 0 -109z"/>
<path d="M2110 3390 l0 -110 78 0 79 0 -1 110 0 110 -78 0 -78 0 0 -110z"/>
<path d="M4079 3488 c-1 -18 -1 -169 0 -190 1 -16 12 -18 75 -18 88 0 84 -5
82 125 l-1 90 -78 3 c-57 2 -77 0 -78 -10z"/>
<path d="M5390 3390 l0 -111 78 3 77 3 3 108 3 107 -81 0 -80 0 0 -110z"/>
<path d="M1309 3283 l-76 -4 1 -107 1 -107 78 -3 77 -2 0 115 c0 63 -1 114 -2
113 -2 -1 -37 -4 -79 -5z"/>
<path d="M1698 3062 l-28 -3 0 -108 0 -107 80 1 80 0 0 107 c0 96 -2 108 -17
109 -10 0 -34 1 -53 2 -19 1 -47 1 -62 -1z"/>
<path d="M5614 3061 c-2 -2 -4 -52 -4 -111 l0 -106 73 2 c39 1 74 2 78 3 3 1
5 48 5 106 0 80 -3 105 -13 106 -54 3 -135 3 -139 0z"/>
<path d="M382 1147 c-40 -42 -30 -79 41 -150 180 -183 441 -241 680 -151 61
24 152 77 185 111 20 19 29 17 75 -20 55 -44 101 -69 171 -96 79 -29 116 -35
221 -35 145 0 288 50 385 133 l45 38 40 -32 c143 -117 342 -166 524 -129 87
17 218 79 275 128 l39 35 46 -39 c134 -111 341 -161 517 -124 82 17 203 72
260 119 23 19 46 35 51 35 4 0 28 -16 53 -36 25 -19 76 -51 115 -69 217 -104
483 -73 665 76 19 16 38 29 43 29 5 0 27 -15 50 -34 105 -85 237 -130 387
-130 150 0 281 44 387 130 49 41 57 41 88 10 35 -36 137 -93 203 -115 198 -67
402 -32 572 95 130 98 169 173 117 222 -41 39 -78 30 -148 -38 -111 -106 -231
-153 -371 -146 -120 7 -223 55 -320 150 -77 76 -96 75 -184 -4 -124 -113 -223
-152 -368 -146 -128 6 -238 59 -341 165 -56 59 -88 57 -156 -10 -210 -206
-489 -210 -698 -8 -83 79 -98 79 -193 -6 -116 -105 -221 -146 -357 -141 -81 3
-176 31 -223 66 -15 11 -31 20 -35 20 -5 0 -35 27 -68 60 -80 81 -100 81 -186
0 -212 -199 -483 -198 -692 4 -79 76 -95 75 -189 -10 -40 -36 -100 -78 -133
-94 -193 -92 -406 -49 -565 114 -58 61 -95 63 -148 8 -65 -66 -125 -109 -197
-138 -61 -25 -82 -28 -170 -28 -148 1 -237 40 -353 153 -61 59 -103 68 -140
28z"/>
</g>
</svg>
