<svg xmlns="http://www.w3.org/2000/svg" viewBox="0 0 32 32" fill="currentColor" aria-hidden="true">
  <path d="M28 28.359c-.738 0-1.436-.292-2-.832-1.129 1.08-2.871 1.08-4 0-1.129 1.08-2.871 1.08-4 0-1.129 1.08-2.872 1.08-4 0-1.128 1.08-2.872 1.08-4 0-1.128 1.08-2.872 1.08-4 0-1.224 1.173-3.158 1.053-4.277-.298a.3602.3602 0 0 1 .048-.507c.152-.127.38-.105.507.048.929 1.121 2.517 1.121 3.445 0 .137-.166.418-.166.555 0 .929 1.121 2.517 1.121 3.445 0 .137-.166.418-.166.555 0 .929 1.121 2.517 1.121 3.445 0 .137-.166.418-.166.555 0 .929 1.121 2.516 1.121 3.445 0 .137-.166.418-.166.555 0 .93 1.121 2.516 1.121 3.445 0 .137-.166.418-.166.555 0 .93 1.121 2.516 1.121 3.445 0 .137-.166.418-.166.555 0 .93 1.121 2.516 1.121 3.445 0a.3592.3592 0 0 1 .507-.048c.153.127.175.354.048.507-.604.729-1.414 1.13-2.278 1.13zM28.36 22c0-.199-.161-.36-.36-.36h-.64v-1.28H28c.199 0 .36-.161.36-.36V8c0-.136-.077-.26-.198-.321s-.267-.049-.376.031c-.154.112-3.77 2.717-6.498-.926a.3636.3636 0 0 0-.242-.141.3643.3643 0 0 0-.271.076c-.193.153-4.794 3.701-9.499-1.949a.3625.3625 0 0 0-.492-.058c-.013.011-1.491 1.088-3.235.744-1.235-.243-2.325-1.132-3.241-2.643-.083-.139-.25-.203-.405-.16A.361.361 0 0 0 3.64 3v17c0 .199.161.36.36.36h.64v1.279H4c-.199 0-.36.161-.36.36v4h.72v-3.64h1.28V26h.72v-3.64h1.28V26h.72v-3.64h3.28V26h.72v-3.64h1.28V26h.72v-3.64h3.28V26h.721v-3.64h1.279V26h.721v-3.64h3.279V26h.721v-3.64h1.279V26h.721v-3.64h1.279V26h.721l-.001-4zm-23-1.64H14a.358.358 0 0 0 .239-.091c.595-.527 1.756-.909 2.761-.909 1.004 0 2.165.382 2.762.909.065.059.15.091.238.091h6.64v1.279H5.36V20.36zM17 18.64c-1.125 0-2.387.407-3.131 1H4.36V4.151c.888 1.115 1.913 1.79 3.059 2.013 1.59.311 2.944-.348 3.513-.689 4.395 5.042 8.822 2.766 9.994 2.014 2.441 2.964 5.471 1.819 6.714 1.151v11h-7.509c-.745-.593-2.007-1-3.131-1zm9.36-.64h-.72v1h.721l-.001-1zM8.359 18H7.64v1h.72l-.001-1zM6.36 17h-.72v1h.72v-1zm19-1h-.72v1h.721l-.001-1zm-6 0h-.72v1h.721l-.001-1zm-9 0h-.72v1h.72v-1zm-2-1h-.72v1h.72v-1zm13-1h-.72v1h.721l-.001-1zm-15 0h-.72v1h.72v-1zm4-1h-.72v1h.72v-1zm16-1h-.72v1h.721l-.001-1zm-14 0h-.72v1h.72v-1zm-4 0h-.72v1h.72v-1zm14-1h-.72v1h.721l-.001-1zm-16 0h-.72v1h.72v-1zm4-1h-.72v1h.72v-1zm2-1h-.72v1h.72V9zm-4 0h-.72v1h.72V9zm-2-1h-.72v1h.72V8zm4-1h-.72v1h.72V7z"/>
</svg>
