<svg xmlns="http://www.w3.org/2000/svg" version="1.1" xmlns:xlink="http://www.w3.org/1999/xlink" xmlns:svgjs="http://svgjs.com/svgjs" width="1200" height="630" preserveAspectRatio="none" viewBox="0 0 1200 630"><g mask="url(&quot;#SvgjsMask1048&quot;)" fill="none"><rect width="1200" height="630" x="0" y="0" fill="url(#SvgjsLinearGradient1049)"></rect><path d="M1200 0L676.82 0L1200 106.35z" fill="rgba(255, 255, 255, .1)"></path><path d="M676.82 0L1200 106.35L1200 263.46000000000004L363.58000000000004 0z" fill="rgba(255, 255, 255, .075)"></path><path d="M363.58000000000004 0L1200 263.46000000000004L1200 484.91L238.81000000000006 0z" fill="rgba(255, 255, 255, .05)"></path><path d="M238.81000000000006 0L1200 484.91L1200 580.4100000000001L222.17000000000007 0z" fill="rgba(255, 255, 255, .025)"></path><path d="M0 630L170.24 630L0 331.49z" fill="rgba(0, 0, 0, .1)"></path><path d="M0 331.49L170.24 630L447.52 630L0 328.27z" fill="rgba(0, 0, 0, .075)"></path><path d="M0 328.27L447.52 630L689.04 630L0 250.14999999999998z" fill="rgba(0, 0, 0, .05)"></path><path d="M0 250.14999999999998L689.04 630L1044.01 630L0 202.15999999999997z" fill="rgba(0, 0, 0, .025)"></path></g><defs><mask id="SvgjsMask1048"><rect width="1200" height="630" fill="#ffffff"></rect></mask><linearGradient x1="11.87%" y1="-22.62%" x2="88.13%" y2="122.62%" gradientUnits="userSpaceOnUse" id="SvgjsLinearGradient1049"><stop stop-color="rgba(234, 203, 246, 1)" offset="0"></stop><stop stop-color="rgba(213, 249, 250, 1)" offset="1"></stop></linearGradient></defs></svg>